{
    "asset" : {
        "generator" : "Khronos glTF Blender I/O v1.8.19",
        "version" : "2.0"
    },
    "scene" : 0,
    "scenes" : [
        {
            "name" : "Scene",
            "nodes" : [
                0
            ]
        }
    ],
    "nodes" : [
        {
            "mesh" : 0,
            "name" : "Obido_3D_2glass",
            "rotation" : [
                0.7071068286895752,
                0,
                0,
                0.7071067094802856
            ]
        }
    ],
    "materials" : [
        {
            "name" : "FrontColor",
            "pbrMetallicRoughness" : {
                "baseColorFactor" : [
                    1,
                    1,
                    1,
                    1
                ],
                "metallicFactor" : 0,
                "roughnessFactor" : 1
            }
        },
        {
            "name" : "Translucent_Glass_Gray",
            "pbrMetallicRoughness" : {
                "baseColorFactor" : [
                    0.5019609928131104,
                    0.5019609928131104,
                    0.5019609928131104,
                    1
                ],
                "metallicFactor" : 0,
                "roughnessFactor" : 1
            }
        },
        {
            "doubleSided" : true,
            "name" : "Color_D01",
            "pbrMetallicRoughness" : {
                "baseColorFactor" : [
                    0.8196079730987549,
                    0.7764710187911987,
                    0.6549019813537598,
                    1
                ],
                "metallicFactor" : 0,
                "roughnessFactor" : 1
            }
        }
    ],
    "meshes" : [
        {
            "name" : "Obido_3D_2glass",
            "primitives" : [
                {
                    "attributes" : {
                        "POSITION" : 0,
                        "NORMAL" : 1,
                        "TEXCOORD_0" : 2
                    },
                    "indices" : 3,
                    "material" : 0
                },
                {
                    "attributes" : {
                        "POSITION" : 4,
                        "NORMAL" : 5,
                        "TEXCOORD_0" : 6
                    },
                    "indices" : 7,
                    "material" : 1
                },
                {
                    "attributes" : {
                        "POSITION" : 8,
                        "NORMAL" : 9,
                        "TEXCOORD_0" : 10
                    },
                    "indices" : 11,
                    "material" : 2
                }
            ]
        }
    ],
    "accessors" : [
        {
            "bufferView" : 0,
            "componentType" : 5126,
            "count" : 22068,
            "max" : [
                18.739700317382812,
                0.03999999910593033,
                1.127989970827734e-17
            ],
            "min" : [
                1.6656999588012695,
                -10.770000457763672,
                -2.9000000953674316
            ],
            "type" : "VEC3"
        },
        {
            "bufferView" : 1,
            "componentType" : 5126,
            "count" : 22068,
            "type" : "VEC3"
        },
        {
            "bufferView" : 2,
            "componentType" : 5126,
            "count" : 22068,
            "type" : "VEC2"
        },
        {
            "bufferView" : 3,
            "componentType" : 5123,
            "count" : 40662,
            "type" : "SCALAR"
        },
        {
            "bufferView" : 4,
            "componentType" : 5126,
            "count" : 168,
            "max" : [
                17.783000946044922,
                -0.19499999284744263,
                -0.41999998688697815
            ],
            "min" : [
                2.801259994506836,
                -2.5250000953674316,
                -2.450000047683716
            ],
            "type" : "VEC3"
        },
        {
            "bufferView" : 5,
            "componentType" : 5126,
            "count" : 168,
            "type" : "VEC3"
        },
        {
            "bufferView" : 6,
            "componentType" : 5126,
            "count" : 168,
            "type" : "VEC2"
        },
        {
            "bufferView" : 7,
            "componentType" : 5123,
            "count" : 252,
            "type" : "SCALAR"
        },
        {
            "bufferView" : 8,
            "componentType" : 5126,
            "count" : 1467,
            "max" : [
                18.489700317382812,
                -0.36000001430511475,
                -0.30000001192092896
            ],
            "min" : [
                1.9156999588012695,
                -9.920000076293945,
                -2.299999952316284
            ],
            "type" : "VEC3"
        },
        {
            "bufferView" : 9,
            "componentType" : 5126,
            "count" : 1467,
            "type" : "VEC3"
        },
        {
            "bufferView" : 10,
            "componentType" : 5126,
            "count" : 1467,
            "type" : "VEC2"
        },
        {
            "bufferView" : 11,
            "componentType" : 5123,
            "count" : 2316,
            "type" : "SCALAR"
        }
    ],
    "bufferViews" : [
        {
            "buffer" : 0,
            "byteLength" : 264816,
            "byteOffset" : 0
        },
        {
            "buffer" : 0,
            "byteLength" : 264816,
            "byteOffset" : 264816
        },
        {
            "buffer" : 0,
            "byteLength" : 176544,
            "byteOffset" : 529632
        },
        {
            "buffer" : 0,
            "byteLength" : 81324,
            "byteOffset" : 706176
        },
        {
            "buffer" : 0,
            "byteLength" : 2016,
            "byteOffset" : 787500
        },
        {
            "buffer" : 0,
            "byteLength" : 2016,
            "byteOffset" : 789516
        },
        {
            "buffer" : 0,
            "byteLength" : 1344,
            "byteOffset" : 791532
        },
        {
            "buffer" : 0,
            "byteLength" : 504,
            "byteOffset" : 792876
        },
        {
            "buffer" : 0,
            "byteLength" : 17604,
            "byteOffset" : 793380
        },
        {
            "buffer" : 0,
            "byteLength" : 17604,
            "byteOffset" : 810984
        },
        {
            "buffer" : 0,
            "byteLength" : 11736,
            "byteOffset" : 828588
        },
        {
            "buffer" : 0,
            "byteLength" : 4632,
            "byteOffset" : 840324
        }
    ],
    "buffers" : [
        {
            "byteLength" : 844956,
            "uri" : "data:application/octet-stream;base64,"
        }
    ]
}
